<?xml version="1.0" encoding="UTF-8"?>
<svg version="1.1" xmlns="http://www.w3.org/2000/svg" width="2000" height="1937">
<path d="M0 0 C660 0 1320 0 2000 0 C2000 639.21 2000 1278.42 2000 1937 C1340 1937 680 1937 0 1937 C0 1297.79 0 658.58 0 0 Z " fill="#F7F0E7" transform="translate(0,0)"/>
<path d="M0 0 C660 0 1320 0 2000 0 C2000 639.21 2000 1278.42 2000 1937 C1340 1937 680 1937 0 1937 C0 1297.79 0 658.58 0 0 Z M28 27 C28 648.39 28 1269.78 28 1910 C527.62 1910 1027.24 1910 1542 1910 C1542 1578.02 1542 1246.04 1542 904 C1536.45406514 908.71419293 1536.45406514 908.71419293 1531.21412116 913.67203635 C1530.54639315 914.33982309 1529.87866514 915.00760984 1529.19070294 915.69563255 C1528.47933634 916.41219879 1527.76796974 917.12876503 1527.03504658 917.8670454 C1526.25897805 918.64465645 1525.48290953 919.4222675 1524.68332377 920.22344252 C1522.08296454 922.8301786 1519.48625235 925.44051753 1516.88948059 928.05082703 C1515.0071866 929.93913002 1513.12468408 931.82722293 1511.24191207 933.71504909 C1507.14849538 937.82023612 1503.0569036 941.92723477 1498.96649742 946.03542137 C1492.31119308 952.71957188 1485.65216586 959.40000672 1478.99267578 966.07998657 C1476.66254922 968.41736798 1474.33245313 970.75477976 1472.0023731 973.09220755 C1471.41688277 973.6795417 1470.83139244 974.26687586 1470.22815998 974.87200802 C1465.97892574 979.13473317 1461.73021547 983.39798017 1457.48172629 987.66144788 C1440.35702873 1004.84631773 1423.2250767 1022.023928 1406.0876636 1039.19611728 C1404.14224223 1041.14548843 1402.19684119 1043.09487988 1400.25144527 1045.04427644 C1390.33681753 1054.97926331 1380.421893 1064.91395399 1370.50694679 1074.84862304 C1360.29744347 1085.07845116 1350.08828061 1095.30861891 1339.87963867 1105.53930664 C1339.20004487 1106.22036016 1338.52045108 1106.90141367 1337.82026353 1107.60310517 C1315.7745474 1129.69636723 1293.74222954 1151.80293722 1271.71625889 1173.91588302 C1249.06712714 1196.65428797 1226.40315716 1219.3778035 1203.72093794 1242.08320496 C1200.51818117 1245.28925534 1197.31560182 1248.4954829 1194.11313438 1251.70182228 C1193.48286919 1252.33284078 1192.852604 1252.96385928 1192.20323987 1253.61399955 C1182.05916517 1263.77110282 1171.93098214 1273.94391136 1161.8087499 1284.1227772 C1151.63748681 1294.35031591 1141.45004771 1304.56150869 1131.24582956 1314.75616964 C1125.18387836 1320.8134487 1119.1348354 1326.88298668 1113.10353034 1332.97078434 C1109.07267887 1337.03690852 1105.02566463 1341.0864548 1100.96517806 1345.1229841 C1098.6525529 1347.42289817 1096.35021697 1349.73163518 1094.06220172 1352.05606814 C1091.59312809 1354.56220521 1089.0978637 1357.03900722 1086.59415913 1359.51047802 C1085.54466797 1360.59586263 1085.54466797 1360.59586263 1084.47397497 1361.7031742 C1078.90016658 1367.11335686 1073.54988003 1368.66252941 1066 1370 C1064.07001121 1370.40211387 1062.14056025 1370.80682721 1060.21191406 1371.21533203 C1058.23039122 1371.60740192 1056.2482716 1371.99646547 1054.265625 1372.3828125 C1052.0618151 1372.81786235 1049.85803994 1373.25308824 1047.65429688 1373.68847656 C1046.54594482 1373.90652954 1045.43759277 1374.12458252 1044.2956543 1374.34924316 C1039.16816509 1375.36171242 1034.04518646 1376.39632742 1028.921875 1377.4296875 C1025.87605146 1378.04187733 1022.83011686 1378.65351253 1019.78417969 1379.26513672 C1017.78273498 1379.6674226 1015.78142957 1380.07040216 1013.78027344 1380.47412109 C1003.0659211 1382.634925 992.34656811 1384.757536 981.60097885 1386.75794411 C961.45735517 1390.51001027 941.36560669 1394.50721657 921.28125 1398.5625 C920.1759996 1398.78561599 920.1759996 1398.78561599 919.04842091 1399.01323938 C907.53150626 1401.33833336 896.01565932 1403.66869795 884.5 1406 C872.24014723 1408.48196122 859.97996206 1410.96226157 847.71875 1413.4375 C846.980457 1413.58658082 846.242164 1413.73566164 845.48149848 1413.88926005 C827.19296703 1417.58159332 808.89741192 1421.21775276 790.55464172 1424.63233948 C773.27605283 1427.85370902 756.05984574 1431.38767886 738.8380127 1434.89764404 C734.31751455 1435.81837831 729.79642217 1436.73618597 725.27539062 1437.65429688 C716.51636862 1439.43345947 707.75796783 1441.21565547 699 1443 C699.12226456 1442.39311844 699.24452911 1441.78623688 699.37049866 1441.16096497 C700.68798298 1434.61914053 702.00234233 1428.07669292 703.31518555 1421.53393555 C703.80012247 1419.11907325 704.28575794 1416.70435109 704.7722168 1414.28979492 C707.53262523 1400.58561916 710.22550982 1386.87269919 712.79849339 1373.13228989 C716.35356181 1354.1755327 720.11308471 1335.263441 723.94096756 1316.36016655 C724.79907974 1312.11928416 725.65416293 1307.87779102 726.50952148 1303.63635254 C728.85232173 1292.02179721 731.19951833 1280.4081314 733.54682922 1268.794487 C735.70542906 1258.11427209 737.86298453 1247.43384864 740.01701832 1236.75271177 C740.85917399 1232.57728045 741.70219092 1228.40202773 742.5475769 1224.22724915 C746.3444012 1205.47627374 750.03336177 1186.70979581 753.5673027 1167.90740967 C755.81373274 1155.95537331 758.12731585 1144.01832688 760.515625 1132.09375 C760.70404716 1131.15202438 760.89246933 1130.21029877 761.08660126 1129.24003601 C762.07307984 1124.31233944 763.0622625 1119.385195 764.05371094 1114.45849609 C764.86385064 1110.42994208 765.66812585 1106.40027848 766.46777344 1102.36962891 C767.45293291 1097.40398095 768.44736458 1092.44027773 769.4486618 1087.4778595 C769.82345622 1085.61261766 770.19503941 1083.74672738 770.56324005 1081.88017273 C771.0725993 1079.30168352 771.59388463 1076.72588131 772.11816406 1074.15039062 C772.33795929 1073.01622459 772.33795929 1073.01622459 772.56219482 1071.85914612 C773.84530685 1065.66455947 776.18280195 1061.56678185 780.62644482 1057.12466621 C781.35899744 1056.38751479 782.09155007 1055.65036337 782.84630126 1054.89087403 C784.05065675 1053.69423388 784.05065675 1053.69423388 785.27934265 1052.47341919 C786.1338074 1051.61654003 786.98827214 1050.75966087 787.86862975 1049.87681568 C790.23714353 1047.50364355 792.61005875 1045.13503486 794.98495233 1042.76825738 C797.54696591 1040.21282803 800.10320395 1037.65163259 802.66017151 1035.09115601 C807.66950624 1030.07678068 812.68416434 1025.06776172 817.7006432 1020.06053461 C823.5455911 1014.22597831 829.38530063 1008.38619076 835.22481153 1002.5461937 C845.64861178 992.1218928 856.07723516 981.70243038 866.50854492 971.28564453 C876.62251731 961.18574689 886.73299385 951.0823669 896.83959961 940.97509766 C897.46155728 940.35310002 898.08351496 939.73110239 898.72431984 939.09025635 C899.3452169 938.46931893 899.96611396 937.84838152 900.60582608 937.20862782 C912.11866852 925.6950945 923.63480291 914.18485885 935.15246254 902.67614458 C939.22062882 898.61098878 943.28782353 894.54486246 947.35471153 890.47842789 C952.31649144 885.51733202 957.28016988 880.55814434 962.24618473 875.6012875 C964.77798854 873.07408342 967.30902162 870.54612088 969.83789444 868.01598358 C972.58445926 865.2681121 975.33490928 862.52415029 978.08573914 859.7805481 C978.87748919 858.98724944 979.66923924 858.19395079 980.48498172 857.37661278 C981.23057308 856.63424587 981.97616444 855.89187895 982.74434948 855.12701607 C983.37761565 854.49445432 984.01088183 853.86189257 984.66333789 853.21016228 C987.30630863 850.71027399 990.03914501 848.33202455 992.78336566 845.94438618 C996.74719511 842.46739628 1000.63323988 838.90509676 1004.52708435 835.35015774 C1005.45985551 834.49943147 1006.39262667 833.64870521 1007.35366362 832.77219936 C1020.29705647 820.96336395 1033.21356326 809.12510859 1046.12109375 797.27709961 C1046.77498305 796.67693898 1047.42887234 796.07677836 1048.10257646 795.45843105 C1083.06676594 763.36358982 1117.81662403 731.05359077 1152.19482422 698.33119202 C1152.96535499 697.59786219 1153.73588577 696.86453237 1154.52976596 696.10898043 C1171.29180599 680.15411147 1188.02341429 664.16767649 1204.72344112 648.14791524 C1212.91247182 640.29278139 1221.10805816 632.44450619 1229.30712891 624.59985352 C1230.12254477 623.81945971 1230.93796063 623.03906591 1231.77808607 622.23502381 C1257.90140185 597.23985858 1284.4231901 572.72772083 1311.20916219 548.44562049 C1338.92361534 523.31713528 1366.13386085 497.73034698 1392.85338299 471.54475634 C1396.68719393 467.78796258 1400.5260224 464.0363351 1404.36795044 460.2878437 C1405.12336175 459.55049011 1405.87877306 458.81313651 1406.65707562 458.05343886 C1419.02134615 446.01113866 1431.74355709 434.44168878 1444.90102208 423.27014894 C1489.98076098 384.40556091 1508.73879068 350.62711757 1542 297 C1542 207.9 1542 118.8 1542 27 C1042.38 27 542.76 27 28 27 Z " fill="#222222" transform="translate(0,0)"/>
<path d="M0 0 C310.0213714 0 310.0213714 0 356.125 6.3125 C357.30358582 6.47248978 357.30358582 6.47248978 358.50598145 6.63571167 C384.43540172 10.17370751 410.1252016 14.72671899 435 23 C435.95052246 23.31066406 436.90104492 23.62132812 437.88037109 23.94140625 C483.56495092 38.92976676 525.65267648 61.8630152 548.63671875 105.953125 C555.77821289 120.17382896 560.67805424 134.70738192 564.25 150.1875 C564.40130371 150.83871826 564.55260742 151.48993652 564.70849609 152.16088867 C567.82349321 166.62890636 568.32053695 180.92828397 568.26074219 195.67114258 C568.25005219 198.79723666 568.26068101 201.92275172 568.2734375 205.04882812 C568.28576718 221.16929014 567.58926969 237.20173961 563.8125 252.9375 C563.48995239 254.30442993 563.48995239 254.30442993 563.16088867 255.69897461 C553.32456639 295.83880263 531.33133824 333.37470487 495.375 355.22265625 C481.30565348 363.56049967 466.87515325 368.36660225 451 372 C449.66567279 372.32933235 448.33173573 372.66034013 447 373 C447 374.65 447 376.3 447 378 C447.8765625 378.1959375 448.753125 378.391875 449.65625 378.59375 C494.36313415 389.13439748 536.69531445 409.32066091 561.78125 449.375 C576.41344909 473.4489476 584.23007313 499.0214536 587 527 C587.09498779 527.90073242 587.18997559 528.80146484 587.2878418 529.72949219 C588.21769385 539.80991502 588.18610039 549.90325937 588.18530273 560.01757812 C588.18748077 563.09779873 588.20567197 566.17765528 588.22460938 569.2578125 C588.37842976 622.88008429 570.37059346 674.86693653 532.41162109 713.55761719 C531.02567368 714.97376684 529.66294358 716.41251981 528.30078125 717.8515625 C499.15470844 748.0613606 458.00402913 767.89323024 418 779 C416.74445313 779.37382813 415.48890625 779.74765625 414.1953125 780.1328125 C403.51336152 783.2119514 392.68678931 785.2644272 381.75 787.1875 C381.0333316 787.31396912 380.31666321 787.44043823 379.57827759 787.57073975 C366.80829893 789.80960009 353.97284427 792.03795699 341 792.5625 C335.92233364 792.78721781 331.05675288 793.27760673 326 794 C218.42 794 110.84 794 0 794 C0 531.98 0 269.96 0 0 Z " fill="#222222" transform="translate(128,211)"/>
<path d="M0 0 C1.43804318 1.45725298 1.43804318 1.45725298 3.11207676 3.47956085 C6.94287463 7.98047054 11.02083106 12.15768699 15.20677185 16.32702637 C16.00496198 17.12607092 16.80315211 17.92511548 17.62552983 18.74837351 C20.28241076 21.40689257 22.94283338 24.06183792 25.60327148 26.71679688 C27.51610376 28.62878882 29.42817907 30.54153712 31.34028625 32.45425415 C35.44793137 36.56242187 39.5573934 40.66876469 43.66811943 44.77384949 C49.61142851 50.70900777 55.55195181 56.64694798 61.49181379 62.58555585 C71.13052509 72.22208225 80.77146423 81.85637655 90.41381836 91.48925781 C99.77664826 100.84289905 109.13842011 110.19759719 118.4987793 119.55371094 C119.07641737 120.13108629 119.65405545 120.70846165 120.24919771 121.30333322 C123.14723033 124.20006073 126.04524224 127.09680895 128.94324386 129.99356747 C152.95895441 153.99892289 176.97828633 178.0006518 201 202 C199.33472036 206.31643882 196.07066792 209.22531712 192.86518526 212.42923844 C192.2251065 213.0768426 191.58502774 213.72444677 190.92555266 214.3916753 C188.76050283 216.57969418 186.58838333 218.76055803 184.4162674 220.94156075 C182.84771918 222.5237153 181.27959974 224.10629504 179.71187264 225.68926322 C175.37142725 230.06927149 171.02468987 234.44298917 166.67689066 238.81569617 C162.44518869 243.0734697 158.21804292 247.3357592 153.99066681 251.59782656 C144.68952667 260.97484206 135.38232455 270.3458235 126.07268845 279.7144033 C117.73116434 288.10876349 109.39183965 296.5053019 101.05431557 304.90363503 C46.01556649 360.3427261 -9.07635204 415.72886233 -64.20153809 471.08200073 C-64.85097567 471.73412517 -65.50041326 472.38624961 -66.16953077 473.05813539 C-95.76101016 502.77185589 -125.35834705 532.47973386 -154.96331506 562.18001514 C-167.433993 574.69086753 -179.9039354 587.20245301 -192.37344016 599.7144747 C-194.46196115 601.8101075 -196.55050443 603.90571808 -198.63904836 606.00132801 C-242.60121781 650.11279087 -286.4981761 694.28843081 -330.35771751 738.50192001 C-362.36484902 770.76729915 -394.3822488 803.02216946 -426.47025299 835.20715141 C-427.13111249 835.87001808 -427.791972 836.53288475 -428.47285754 837.21583828 C-442.98585966 851.77252998 -457.50434277 866.32374254 -472.02800019 880.86980281 C-477.87302604 886.72402902 -483.71728645 892.57901917 -489.56129456 898.43426132 C-490.52067193 899.39542521 -490.52067193 899.39542521 -491.49943067 900.37600655 C-512.05190244 920.96749403 -532.54065153 941.621001 -552.99656386 962.30837953 C-573.62791859 983.17256572 -594.32182924 1003.97249103 -615.10296132 1024.6875584 C-617.9849446 1027.5604082 -620.86621821 1030.43396876 -623.74706459 1033.3079586 C-624.31173779 1033.87123593 -624.87641099 1034.43451326 -625.4581955 1035.01485959 C-634.34117215 1043.87953907 -643.1556036 1052.80919119 -651.94239699 1061.76911189 C-660.61838234 1070.61319118 -669.36532782 1079.3816961 -678.18878088 1088.07870176 C-682.8937819 1092.72009613 -687.56229091 1097.3887096 -692.14507574 1102.15176059 C-716.77322668 1127.69074518 -736.90988328 1138.5932151 -772.38111132 1142.34556197 C-780.19624943 1143.19467952 -787.86670543 1144.74801637 -795.56451176 1146.31195378 C-799.2418911 1147.04902575 -802.92986075 1147.72887324 -806.6171875 1148.4140625 C-814.71290868 1149.93574231 -822.7965419 1151.51432216 -830.875 1153.125 C-831.97166992 1153.3425293 -833.06833984 1153.56005859 -834.19824219 1153.78417969 C-839.30240722 1154.80864447 -844.39715119 1155.86030069 -849.47875977 1156.9909668 C-869.01072558 1161.32893444 -888.648924 1165.13204443 -908.27984619 1168.99072266 C-914.07623518 1170.13055708 -919.87202263 1171.27344547 -925.6678896 1172.41593075 C-930.18242523 1173.30578946 -934.69704146 1174.19523023 -939.21195984 1175.08314514 C-940.45619201 1175.32807662 -940.45619201 1175.32807662 -941.72556019 1175.5779562 C-943.36034604 1175.89953731 -944.9952615 1176.2204604 -946.63031292 1176.54068851 C-950.91785265 1177.38263164 -955.20016821 1178.24506906 -959.47817993 1179.13424683 C-960.38078961 1179.32007041 -961.2833993 1179.50589399 -962.21336079 1179.69734859 C-963.93573615 1180.05264799 -965.65716644 1180.41257301 -967.37742138 1180.77800083 C-971.66203255 1181.65783677 -975.59748015 1182.19866792 -980 1182 C-979.51869814 1171.03258671 -977.0224227 1160.35641086 -974.84375 1149.6328125 C-974.41782256 1147.5144157 -973.99241871 1145.39591357 -973.56750488 1143.27731323 C-972.44500475 1137.68766267 -971.31562052 1132.09942521 -970.18469238 1126.51147461 C-969.06969621 1120.99672622 -967.96078965 1115.48075487 -966.8515625 1109.96484375 C-965.09974475 1101.2569012 -963.34510813 1092.5495315 -961.58862305 1083.8425293 C-959.26188761 1072.30618602 -956.94115269 1060.76865063 -954.62973022 1049.22922897 C-954.25189048 1047.34352813 -953.87370215 1045.4578971 -953.49511719 1043.57234573 C-951.59351224 1034.09995181 -949.70602364 1024.62585162 -947.9432524 1015.12647113 C-947.27456625 1011.52455069 -946.58994593 1007.92754481 -945.8597381 1004.33755927 C-944.17350948 995.92618239 -942.78300345 987.55099177 -941.74863476 979.03262308 C-936.89822477 940.08028256 -925.9138243 916.72207819 -897.08668498 889.20550499 C-892.73350811 885.00162531 -888.49904046 880.68252007 -884.25710986 876.36713177 C-875.50356887 867.46992619 -866.64328781 858.6871522 -857.71469307 849.96591377 C-848.69637082 841.15609724 -839.73416322 832.2941778 -830.83235359 823.36659813 C-830.26557521 822.79824156 -829.69879682 822.22988499 -829.11484333 821.64430549 C-826.22396944 818.74490067 -823.33394786 815.84464781 -820.44422412 812.94409673 C-799.64173204 792.0671522 -778.72579966 771.30715175 -757.74535751 750.60918427 C-736.99557413 730.13811167 -716.2965931 709.61775108 -695.66226578 689.03028107 C-695.01920661 688.38872818 -694.37614743 687.74717529 -693.71360162 687.0861814 C-687.83944431 681.22573873 -681.96588314 675.36469889 -676.0930414 669.50293786 C-661.49979902 654.93725839 -646.89886646 640.37930272 -632.29265022 625.82663345 C-631.62783736 625.16424591 -630.9630245 624.50185836 -630.2780658 623.81939846 C-598.01116854 591.67157469 -565.65574308 559.61326646 -533.29296875 527.56201172 C-488.9726305 483.66795305 -444.70252441 439.7242585 -400.50388791 395.70763814 C-398.40388657 393.61628658 -396.30385851 391.52496185 -394.20382485 389.43364274 C-381.66917538 376.95093559 -369.13520861 364.46754305 -356.60197996 351.98340933 C-326.87043341 322.36845003 -297.12953275 292.76289429 -267.38259888 263.16339111 C-266.7301905 262.51421342 -266.07778211 261.86503572 -265.40560378 261.19618597 C-210.03497538 206.10013637 -154.61919628 151.04967659 -99.14620802 96.0566844 C-90.7482415 87.73134625 -82.35275645 79.40351238 -73.95866966 71.07426262 C-64.63470802 61.82240518 -55.30714953 52.57419215 -45.9744113 43.33118768 C-41.26975978 38.67164006 -36.56666947 34.01053842 -31.86765336 29.34530553 C-27.60303244 25.11151823 -23.33388864 20.88235021 -19.06088625 16.65702262 C-17.51609054 15.12786717 -15.97298815 13.59699895 -14.43168727 12.06432099 C-12.3560891 10.00084043 -10.27459715 7.94350307 -8.19136417 5.88773513 C-7.58535325 5.28237694 -6.97934233 4.67701875 -6.35496744 4.05331637 C-2.22834312 0 -2.22834312 0 0 0 Z " fill="#F7F0E7" transform="translate(1770,170)"/>
<path d="M0 0 C28.9265625 -0.061875 28.9265625 -0.061875 58.4375 -0.125 C67.49336548 -0.15231201 67.49336548 -0.15231201 76.73217773 -0.18017578 C84.2364502 -0.18920898 84.2364502 -0.18920898 87.77503967 -0.19088745 C90.19061526 -0.19391246 92.60618827 -0.20084745 95.02174377 -0.21115112 C138.35438826 -0.38637496 185.51352233 1.52354659 220 31 C221.04607422 31.89332031 221.04607422 31.89332031 222.11328125 32.8046875 C227.13816961 37.46190111 230.58456099 43.10508364 234 49 C234.45375 49.78117188 234.9075 50.56234375 235.375 51.3671875 C248.67605142 76.0572642 249.50024501 107.41110326 242 134 C237.35492845 148.95095281 230.33687012 162.17783204 220 174 C219.11248047 175.03060547 219.11248047 175.03060547 218.20703125 176.08203125 C208.96465864 186.07325281 196.59216032 192.30880302 184 197 C182.83726562 197.44085937 181.67453125 197.88171875 180.4765625 198.3359375 C168.02016789 202.64475324 155.03685593 204.3412591 142 206 C140.08423157 206.25640511 140.08423157 206.25640511 138.12976074 206.51799011 C132.01422193 207.18886398 125.91496519 207.1317461 119.76928711 207.11352539 C117.79017885 207.11370619 117.79017885 207.11370619 115.7710886 207.11389065 C112.22664312 207.11411489 108.68223193 207.10835118 105.13779449 207.10128021 C101.80251666 207.09555304 98.46724017 207.09531534 95.13195801 207.09460449 C85.40046753 207.08937304 75.66898332 207.07541178 65.9375 207.0625 C44.178125 207.041875 22.41875 207.02125 0 207 C0 138.69 0 70.38 0 0 Z " fill="#F7F0E7" transform="translate(296,659)"/>
<path d="M0 0 C25.6471875 -0.0928125 25.6471875 -0.0928125 51.8125 -0.1875 C59.79207886 -0.22846802 59.79207886 -0.22846802 67.93286133 -0.27026367 C177.07017983 -0.59732474 177.07017983 -0.59732474 209.1640625 30.89453125 C224.55086728 47.0073258 228.63908321 67.8719474 228.47412109 89.37304688 C228.22220813 98.95981291 226.83746563 107.85105246 224 117 C223.649375 118.15371094 223.29875 119.30742187 222.9375 120.49609375 C216.12830849 140.19073449 202.51030952 154.51878975 183.875 163.625 C173.08300801 168.26753534 161.76242326 171.02474668 150.25 173.1875 C149.44328857 173.34226807 148.63657715 173.49703613 147.80541992 173.65649414 C128.68209185 177.03703825 109.49911594 177.27865586 90.13671875 177.1953125 C87.81498308 177.19236246 85.49324606 177.19032796 83.17150879 177.18920898 C74.67681857 177.17883302 66.18215704 177.15091128 57.6875 177.125 C38.650625 177.08375 19.61375 177.0425 0 177 C0 118.59 0 60.18 0 0 Z " fill="#F6EFE6" transform="translate(296,349)"/>
</svg>
