<?xml version="1.0" encoding="UTF-8"?>
<svg version="1.1" xmlns="http://www.w3.org/2000/svg" width="2000" height="1937">
<path d="M0 0 C499.62 0 999.24 0 1514 0 C1514 271 1514 271 1458.0625 353.4375 C1437.9165146 372.06922264 1418.60200859 389.69754035 1397.33942294 406.72282004 C1387.04517927 414.98819296 1377.17923611 423.68473791 1367.40576172 432.55615234 C1366.64262708 433.24865432 1365.87949244 433.94115629 1365.09323251 434.65464318 C1361.25922128 438.13730203 1357.43081447 441.62605317 1353.60510063 445.11782265 C1324.69578493 471.49014484 1295.10988282 496.93659075 1264.75914097 521.63336849 C1263.84797992 522.3754131 1262.93681887 523.11745771 1261.99804688 523.88198853 C1260.83154602 524.82870643 1260.83154602 524.82870643 1259.64147949 525.79454994 C1252.94666594 531.38424957 1246.55267176 537.24602668 1240.25949669 543.28225803 C1239.41169024 544.09295906 1238.56388379 544.90366009 1237.69038624 545.73892781 C1235.34835532 547.97956515 1233.00791429 550.22184606 1230.66842931 552.46514114 C1229.16080176 553.9105751 1227.65266811 555.35547915 1226.14439161 556.80023592 C1218.85237915 563.78553692 1211.56635317 570.77705921 1204.28268304 577.77105756 C1202.48126348 579.50073199 1200.67964034 581.23019415 1198.87797332 582.95961082 C1167.78153367 612.81080272 1136.78505745 642.76242765 1105.94595337 672.87950134 C1105.24300249 673.56595983 1104.54005162 674.25241831 1103.8157992 674.95967857 C1088.53197067 689.88593405 1073.26187784 704.82616548 1058.00672092 719.78172213 C1050.52921892 727.11226281 1043.04882754 734.43985122 1035.56689453 741.76586914 C1034.82266936 742.49468611 1034.07844419 743.22350308 1033.31166674 743.97440541 C1009.38918194 767.39883958 985.27896028 790.61765041 961.05741511 813.73238532 C936.04082125 837.6079349 911.23766344 861.68714053 886.66719123 886.02191795 C883.15680161 889.49845603 879.64417461 892.97272526 876.13017654 896.44561577 C875.4390297 897.12881836 874.74788285 897.81202094 874.03579216 898.51592664 C864.46482227 907.96694004 854.76864384 917.26874347 844.95028445 926.46224084 C775.96792443 991.05638673 734.70047229 1043.82151738 719.80720317 1161.68752605 C719.73391252 1162.40210217 719.66062186 1163.1166783 719.58511028 1163.85290824 C719.51219191 1164.56409669 719.43927355 1165.27528514 719.36414554 1166.00802476 C719.21761078 1167.43414287 719.07086611 1168.86023943 718.92390823 1170.28631401 C718.81578843 1171.33607112 718.81578843 1171.33607112 718.70548439 1172.40703545 C716.38257395 1194.63263371 711.60755523 1216.39853803 706.91783476 1238.2276485 C704.78592338 1248.2031026 702.84272981 1258.21690839 700.88343841 1268.22740948 C700.23103222 1271.55846231 699.5720371 1274.88817237 698.9118042 1278.21768188 C698.52807964 1280.15764645 698.14439142 1282.0976182 697.76074219 1284.03759766 C697.5440324 1285.13333414 697.32732262 1286.22907063 697.10404587 1287.35801125 C695.2154067 1296.9085053 693.32850973 1306.45934337 691.44178259 1316.01021528 C689.14463222 1327.63855938 686.84541846 1339.2664943 684.54465008 1350.89412308 C682.98957752 1358.7537489 681.4372546 1366.61391043 679.8869133 1374.47447109 C678.93539484 1379.29578873 677.98148599 1384.11663107 677.02689743 1388.93734169 C676.58221874 1391.18560151 676.13855314 1393.43406196 675.69594193 1395.68272972 C675.09186162 1398.75101452 674.48425399 1401.81857977 673.87573242 1404.88598633 C673.69876611 1405.78938562 673.52179979 1406.69278492 673.33947086 1407.62355995 C672.114093 1413.77181399 672.114093 1413.77181399 671 1416 C671.59107827 1415.83908591 672.18215654 1415.67817183 672.79114628 1415.51238155 C683.99365159 1412.58446227 695.36544164 1410.45487519 706.71850586 1408.20336914 C709.12784726 1407.72331818 711.53713745 1407.24301017 713.94638062 1406.76246643 C719.81358241 1405.59289629 725.68131629 1404.4260312 731.54929721 1403.26037879 C738.48686776 1401.88210957 745.4237777 1400.50052895 752.36066396 1399.11882048 C764.86278038 1396.62871325 777.36543145 1394.14130113 789.8684082 1391.65551758 C801.75544168 1389.2921882 813.64219628 1386.92746435 825.52856445 1384.56079102 C826.24879069 1384.41738831 826.96901692 1384.27398559 827.7110682 1384.12623735 C830.61395882 1383.54824456 833.51684849 1382.97024697 836.41973659 1382.39224152 C848.67131463 1379.95281987 860.92312367 1377.51455868 873.17495012 1375.07638502 C876.03431749 1374.50735378 878.89367652 1373.93828071 881.75302839 1373.36917162 C891.63840295 1371.40166229 901.52391259 1369.43483335 911.40966797 1367.46923828 C912.0966426 1367.3326455 912.78361723 1367.19605272 913.49140927 1367.05532077 C932.70600776 1363.23513837 951.92402689 1359.43276799 971.14579046 1355.64878237 C974.80296369 1354.92868401 978.46002029 1354.20799659 982.11703205 1353.48707867 C983.28960566 1353.2559402 984.46217926 1353.02480173 985.6702854 1352.78665906 C987.98720156 1352.32994578 990.30411367 1351.87321205 992.62102157 1351.41645688 C999.22913719 1350.11422497 1005.83812417 1348.81653576 1012.44783068 1347.52240419 C1016.44024259 1346.73976954 1020.43188317 1345.95325677 1024.42332339 1345.16568303 C1026.25062079 1344.80603281 1028.07825567 1344.44809227 1029.90625119 1344.0920074 C1032.37842641 1343.61028576 1034.8493632 1343.12264942 1037.32008362 1342.63352966 C1038.38964063 1342.42746341 1038.38964063 1342.42746341 1039.48080486 1342.21723419 C1045.10139323 1341.09389234 1049.47808889 1339.89873418 1053.58104867 1335.78924549 C1054.25401143 1335.12251215 1054.92697419 1334.45577882 1055.62032977 1333.76884145 C1056.3478306 1333.03288788 1057.07533143 1332.29693431 1057.82487774 1331.53867912 C1058.61007641 1330.75634279 1059.39527508 1329.97400646 1060.20426765 1329.16796297 C1062.8524077 1326.52579234 1065.48964026 1323.87299241 1068.12712097 1321.22018433 C1070.03502815 1319.31215327 1071.94352395 1317.40472832 1073.85276395 1315.49803269 C1078.01229391 1311.34164473 1082.16621802 1307.17971922 1086.31655121 1303.01414871 C1092.48804688 1296.82005886 1098.66813062 1290.63459186 1104.85006796 1284.45092529 C1115.24854208 1274.04909356 1125.64015256 1263.64043069 1136.02803612 1253.22802353 C1146.3163475 1242.91552666 1156.60817983 1232.60656298 1166.90459633 1222.30215836 C1167.86438373 1221.34162626 1167.86438373 1221.34162626 1168.84356077 1220.36168947 C1172.09303403 1217.10974555 1175.34258124 1213.85787552 1178.59216396 1210.60604097 C1185.20039624 1203.99319277 1191.80814247 1197.37985893 1198.41573811 1190.76637459 C1199.07722815 1190.10429526 1199.73871819 1189.44221593 1200.42025339 1188.7600736 C1216.16868851 1172.99736217 1231.91217425 1157.22970995 1247.6550293 1141.46142578 C1248.68844136 1140.42634845 1248.68844136 1140.42634845 1249.74273043 1139.37036047 C1255.32505305 1133.77904171 1260.90736321 1128.18771051 1266.48965304 1122.59635901 C1282.57076762 1106.48915573 1298.65309884 1090.38316755 1314.73608398 1074.27783203 C1315.42511406 1073.58784125 1316.11414413 1072.89785047 1316.8240539 1072.18695088 C1332.54602887 1056.44309423 1348.26904375 1040.70027747 1363.9946413 1024.96003914 C1364.65499128 1024.29907277 1365.31534126 1023.63810641 1365.99570184 1022.95711076 C1372.58687156 1016.35982069 1379.17817707 1009.76266632 1385.76970845 1003.1657376 C1399.9486399 988.97509813 1414.1245252 974.78143335 1428.29443475 960.5817848 C1438.61992867 950.23467147 1448.94870682 939.89084721 1459.28100678 929.55053006 C1465.42710132 923.39941356 1471.57029844 917.24543434 1477.70952828 911.08746625 C1481.80318314 906.98184912 1485.9003944 902.87980487 1490.00058949 898.78071938 C1492.34145422 896.44027027 1494.68009305 894.09767007 1497.01549842 891.75177155 C1499.52333539 889.2331336 1502.03713584 886.7206096 1504.55264568 884.2096386 C1505.28717001 883.4690027 1506.02169434 882.7283668 1506.77847698 881.96528739 C1507.44392919 881.30356109 1508.1093814 880.64183479 1508.79499882 879.96005619 C1509.37007255 879.38399928 1509.94514628 878.80794237 1510.53764648 878.21442919 C1512 877 1512 877 1514 877 C1514 1208.98 1514 1540.96 1514 1883 C1014.38 1883 514.76 1883 0 1883 C0 1261.61 0 640.22 0 0 Z " fill="#F7F0E7" transform="translate(28,27)"/>
<path d="M0 0 C310.0213714 0 310.0213714 0 356.125 6.3125 C357.30358582 6.47248978 357.30358582 6.47248978 358.50598145 6.63571167 C384.43540172 10.17370751 410.1252016 14.72671899 435 23 C435.95052246 23.31066406 436.90104492 23.62132812 437.88037109 23.94140625 C483.56495092 38.92976676 525.65267648 61.8630152 548.63671875 105.953125 C555.77821289 120.17382896 560.67805424 134.70738192 564.25 150.1875 C564.40130371 150.83871826 564.55260742 151.48993652 564.70849609 152.16088867 C567.82349321 166.62890636 568.32053695 180.92828397 568.26074219 195.67114258 C568.25005219 198.79723666 568.26068101 201.92275172 568.2734375 205.04882812 C568.28576718 221.16929014 567.58926969 237.20173961 563.8125 252.9375 C563.48995239 254.30442993 563.48995239 254.30442993 563.16088867 255.69897461 C553.32456639 295.83880263 531.33133824 333.37470487 495.375 355.22265625 C481.30565348 363.56049967 466.87515325 368.36660225 451 372 C449.66567279 372.32933235 448.33173573 372.66034013 447 373 C447 374.65 447 376.3 447 378 C447.8765625 378.1959375 448.753125 378.391875 449.65625 378.59375 C494.36313415 389.13439748 536.69531445 409.32066091 561.78125 449.375 C576.41344909 473.4489476 584.23007313 499.0214536 587 527 C587.09498779 527.90073242 587.18997559 528.80146484 587.2878418 529.72949219 C588.21769385 539.80991502 588.18610039 549.90325937 588.18530273 560.01757812 C588.18748077 563.09779873 588.20567197 566.17765528 588.22460938 569.2578125 C588.37842976 622.88008429 570.37059346 674.86693653 532.41162109 713.55761719 C531.02567368 714.97376684 529.66294358 716.41251981 528.30078125 717.8515625 C499.15470844 748.0613606 458.00402913 767.89323024 418 779 C416.74445313 779.37382813 415.48890625 779.74765625 414.1953125 780.1328125 C403.51336152 783.2119514 392.68678931 785.2644272 381.75 787.1875 C381.0333316 787.31396912 380.31666321 787.44043823 379.57827759 787.57073975 C366.80829893 789.80960009 353.97284427 792.03795699 341 792.5625 C335.92233364 792.78721781 331.05675288 793.27760673 326 794 C218.42 794 110.84 794 0 794 C0 531.98 0 269.96 0 0 Z " fill="#222222" transform="translate(128,211)"/>
<path d="M0 0 C3.51797396 0.45724267 5.15193972 1.77815906 7.63128281 4.26213932 C8.33940951 4.96429288 9.04753622 5.66644644 9.77712131 6.38987738 C10.54755055 7.16904514 11.31797979 7.94821291 12.11175537 8.75099182 C12.93596709 9.57264027 13.76017882 10.39428872 14.60936666 11.24083561 C16.89752839 13.52490445 19.17881766 15.81559179 21.45740342 18.10920656 C23.91546715 20.58020801 26.38217626 23.04255191 28.84785461 25.50595093 C33.11925698 29.77577912 37.38512582 34.05107217 41.64730072 38.33011055 C47.80971677 44.51689258 53.98038576 50.69538841 60.15310994 56.87188374 C70.16735744 66.8926995 80.1748851 76.92019848 90.17822266 86.9519043 C99.89638987 96.6976024 109.6176984 106.44014926 119.34326172 116.1784668 C120.24226454 117.07865188 120.24226454 117.07865188 121.15942904 117.99702252 C124.16609321 121.00760176 127.17281939 124.01811906 130.1795764 127.02860558 C155.12933868 152.00947541 180.06821047 177.00119319 205 202 C203.33336266 206.29274928 200.11096027 209.20936756 196.93307465 212.41543043 C196.30032552 213.06154382 195.66757638 213.70765722 195.01565302 214.3733498 C192.87547757 216.55623339 190.72828179 218.73207717 188.58107281 220.908041 C187.03039137 222.48657967 185.48012633 224.06552749 183.93024227 225.64484906 C179.63902341 230.01487133 175.34147737 234.37862431 171.04277098 238.74127984 C166.85830623 242.98966746 162.67821128 247.24234967 158.49776274 251.49468841 C148.75782339 261.40152178 139.01028076 271.30085328 129.26033619 281.19783878 C122.10797223 288.45811548 114.95728414 295.72003814 107.80787963 302.98322909 C52.72941946 358.9377694 -2.43906154 414.80281385 -57.70329285 470.57388306 C-58.34866061 471.22517973 -58.99402838 471.87647641 -59.65895274 472.54750935 C-89.0735554 502.23215871 -118.49996872 531.90507063 -147.93949591 561.56500107 C-160.34258582 574.06106101 -172.74391306 586.55886991 -185.14422611 599.0576854 C-187.22101848 601.15095456 -189.29786007 603.24417488 -191.37470343 605.33739345 C-223.28211845 637.49726967 -255.1517627 669.69343874 -286.91015625 702.00054932 C-287.59085368 702.6930072 -288.27155111 703.38546508 -288.97287573 704.09890653 C-299.94474147 715.26081359 -310.91332245 726.42594755 -321.88147952 737.59149872 C-353.55193418 769.83182341 -385.24544083 802.04794881 -417.09300518 834.11347389 C-417.75070611 834.77569814 -418.40840705 835.43792238 -419.08603831 836.12021403 C-433.53964802 850.67238791 -448.00517164 865.21265934 -462.4819422 879.74179102 C-468.3104558 885.59179585 -474.13728143 891.44348103 -479.96353722 897.29573441 C-480.91995629 898.2562966 -480.91995629 898.2562966 -481.89569696 899.2362641 C-502.29045191 919.72101998 -522.54431631 940.33837097 -542.72591356 961.03299303 C-563.12878067 981.9531666 -583.66886031 1002.72803177 -604.39914603 1023.32407054 C-607.29200436 1026.19825985 -610.18332221 1029.07399418 -613.0737114 1031.95066643 C-613.64014754 1032.51430232 -614.20658369 1033.07793821 -614.79018457 1033.65865398 C-623.07064814 1041.9055704 -631.22228336 1050.26529072 -639.30651283 1058.70430565 C-692.84877309 1114.53309626 -738.63705328 1145.71301517 -817.94029214 1153.38140928 C-835.51063249 1155.08625845 -852.59808495 1158.55281516 -869.82872996 1162.30384569 C-876.66712161 1163.78450934 -883.53404006 1165.12403165 -890.39950816 1166.47232847 C-894.0156851 1167.18375236 -897.63017822 1167.9036495 -901.24487305 1168.62255859 C-902.7010858 1168.91184817 -904.15730271 1169.20111685 -905.61352539 1169.49035645 C-911.01225308 1170.56338227 -916.41018888 1171.64037315 -921.80815703 1172.71721208 C-927.91259176 1173.93477866 -934.01759786 1175.14945016 -940.12306589 1176.36182463 C-943.6810944 1177.0684037 -947.23888767 1177.77611291 -950.79606819 1178.48694992 C-954.64063722 1179.25512289 -958.48638413 1180.01728142 -962.33227539 1180.77880859 C-963.46510452 1181.00606628 -964.59793365 1181.23332397 -965.76509094 1181.46746826 C-966.79946289 1181.67127106 -967.83383484 1181.87507385 -968.89955139 1182.08505249 C-969.79407548 1182.26296011 -970.68859957 1182.44086773 -971.61023045 1182.62416649 C-974 1183 -974 1183 -978 1183 C-977.40151997 1174.52365559 -975.79654465 1166.30420238 -974.11108398 1157.98779297 C-973.81136403 1156.49060705 -973.51207017 1154.99333579 -973.21316528 1153.49598694 C-972.40036389 1149.43054747 -971.58162854 1145.36632333 -970.76185107 1141.30228567 C-969.88629456 1136.95622888 -969.01635454 1132.6090478 -968.14576721 1128.26199341 C-966.47936774 1119.94556338 -964.80809478 1111.63012063 -963.13502508 1103.31503022 C-961.29664043 1094.17733346 -959.46310917 1085.0386658 -957.63029373 1075.89985061 C-952.54248114 1050.53092671 -952.54248114 1050.53092671 -951.3221487 1044.47468055 C-951.00314372 1042.88460388 -950.68654102 1041.29404177 -950.37324464 1039.70283048 C-949.53801417 1035.48207628 -948.65743073 1031.2804932 -947.67993665 1027.0902819 C-945.65348603 1018.10948558 -943.93374715 1009.28827 -943.51010805 1000.071666 C-941.23840626 950.66614791 -925.15831971 918.70661931 -890.87237549 883.1424408 C-890.40799844 882.66067192 -889.94362138 882.17890304 -889.4651723 881.68253511 C-877.44486058 869.23612771 -865.12331348 857.10168229 -852.70303724 845.05603619 C-844.23407446 836.84237438 -835.84736396 828.55263098 -827.52291107 820.19255257 C-826.95682882 819.62413161 -826.39074657 819.05571066 -825.80751031 818.47006483 C-822.91980729 815.5697925 -820.03323817 812.66839431 -817.14706259 809.76660207 C-796.41687342 788.92890993 -775.53667002 768.24744301 -754.56876373 747.64921379 C-733.84310859 727.28811453 -713.18546306 706.86171035 -692.61281586 686.34597969 C-691.97073263 685.7057351 -691.3286494 685.06549051 -690.6671091 684.40584457 C-684.80151802 678.55699952 -678.93670276 672.70737709 -673.07282936 666.85680995 C-658.50439598 652.32148971 -643.92568489 637.79650474 -629.33985519 623.2786417 C-628.67610598 622.61796999 -628.01235678 621.95729829 -627.32849395 621.27660622 C-595.1439294 589.24310478 -562.84095333 557.32976116 -530.52832031 525.42553711 C-486.27399779 481.73015668 -442.09024811 437.96538537 -398.00387971 394.10052159 C-395.90780189 392.01497674 -393.81168889 389.92946725 -391.71556834 387.84396534 C-379.89527648 376.08346708 -368.07564911 364.32230107 -356.25693013 352.56022214 C-291.00631462 287.6223333 -225.70398728 222.73617566 -105.7762281 103.95987659 C-105.20626704 103.39654798 -104.63630597 102.83321936 -104.04907336 102.25282019 C-103.48089439 101.69125466 -102.91271542 101.12968914 -102.3273189 100.55110647 C-101.76092699 99.99130658 -101.19453507 99.43150668 -100.61097976 98.85474314 C-99.47257149 97.7295921 -98.33415329 96.60445109 -97.19572505 95.47932024 C-88.81347622 87.19472909 -80.43779959 78.90353702 -72.06587219 70.60851669 C-62.76620235 61.39434301 -53.45807525 52.18882003 -44.13759781 42.99569208 C-39.43977495 38.36165521 -34.74609289 33.72356941 -30.06274977 29.07489192 C-25.81179934 24.85570854 -21.54973833 20.64811174 -17.27806149 16.44991671 C-15.7355827 14.9299608 -14.19732945 13.40570321 -12.66361152 11.87690758 C-10.59645749 9.81761636 -8.51493089 7.77409345 -6.42874646 5.73411125 C-5.82888509 5.12926614 -5.22902372 4.52442103 -4.61098472 3.90124728 C-2.93239374 2.27878713 -2.93239374 2.27878713 0 0 Z " fill="#F8F1E8" transform="translate(1767,170)"/>
<path d="M0 0 C28.9265625 -0.061875 28.9265625 -0.061875 58.4375 -0.125 C67.49336548 -0.15231201 67.49336548 -0.15231201 76.73217773 -0.18017578 C84.2364502 -0.18920898 84.2364502 -0.18920898 87.77503967 -0.19088745 C90.19061526 -0.19391246 92.60618827 -0.20084745 95.02174377 -0.21115112 C138.35438826 -0.38637496 185.51352233 1.52354659 220 31 C221.04607422 31.89332031 221.04607422 31.89332031 222.11328125 32.8046875 C227.13816961 37.46190111 230.58456099 43.10508364 234 49 C234.45375 49.78117188 234.9075 50.56234375 235.375 51.3671875 C248.67605142 76.0572642 249.50024501 107.41110326 242 134 C237.35492845 148.95095281 230.33687012 162.17783204 220 174 C219.11248047 175.03060547 219.11248047 175.03060547 218.20703125 176.08203125 C208.96465864 186.07325281 196.59216032 192.30880302 184 197 C182.83726562 197.44085937 181.67453125 197.88171875 180.4765625 198.3359375 C168.02016789 202.64475324 155.03685593 204.3412591 142 206 C140.08423157 206.25640511 140.08423157 206.25640511 138.12976074 206.51799011 C132.01422193 207.18886398 125.91496519 207.1317461 119.76928711 207.11352539 C117.79017885 207.11370619 117.79017885 207.11370619 115.7710886 207.11389065 C112.22664312 207.11411489 108.68223193 207.10835118 105.13779449 207.10128021 C101.80251666 207.09555304 98.46724017 207.09531534 95.13195801 207.09460449 C85.40046753 207.08937304 75.66898332 207.07541178 65.9375 207.0625 C44.178125 207.041875 22.41875 207.02125 0 207 C0 138.69 0 70.38 0 0 Z " fill="#F7F0E7" transform="translate(296,659)"/>
<path d="M0 0 C25.6471875 -0.0928125 25.6471875 -0.0928125 51.8125 -0.1875 C59.79207886 -0.22846802 59.79207886 -0.22846802 67.93286133 -0.27026367 C177.07017983 -0.59732474 177.07017983 -0.59732474 209.1640625 30.89453125 C224.55086728 47.0073258 228.63908321 67.8719474 228.47412109 89.37304688 C228.22220813 98.95981291 226.83746563 107.85105246 224 117 C223.649375 118.15371094 223.29875 119.30742187 222.9375 120.49609375 C216.12830849 140.19073449 202.51030952 154.51878975 183.875 163.625 C173.08300801 168.26753534 161.76242326 171.02474668 150.25 173.1875 C149.44328857 173.34226807 148.63657715 173.49703613 147.80541992 173.65649414 C128.68209185 177.03703825 109.49911594 177.27865586 90.13671875 177.1953125 C87.81498308 177.19236246 85.49324606 177.19032796 83.17150879 177.18920898 C74.67681857 177.17883302 66.18215704 177.15091128 57.6875 177.125 C38.650625 177.08375 19.61375 177.0425 0 177 C0 118.59 0 60.18 0 0 Z " fill="#F6EFE6" transform="translate(296,349)"/>
</svg>
